{
    "asset" : {
        "generator" : "Khronos glTF Blender I/O v1.8.19",
        "version" : "2.0"
    },
    "scene" : 0,
    "scenes" : [
        {
            "name" : "Scene",
            "nodes" : [
                0
            ]
        }
    ],
    "nodes" : [
        {
            "mesh" : 0,
            "name" : "\u80d6\u91d1\u9c7c"
        }
    ],
    "materials" : [
        {
            "doubleSided" : true,
            "name" : "Mat3d66-691702-31-6927",
            "pbrMetallicRoughness" : {
                "baseColorTexture" : {
                    "index" : 0
                },
                "metallicFactor" : 0,
                "roughnessFactor" : 0.6417322754859924
            }
        }
    ],
    "meshes" : [
        {
            "name" : "Obj3d66-691702-353-745",
            "primitives" : [
                {
                    "attributes" : {
                        "POSITION" : 0,
                        "NORMAL" : 1,
                        "TEXCOORD_0" : 2
                    },
                    "indices" : 3,
                    "material" : 0
                }
            ]
        }
    ],
    "textures" : [
        {
            "sampler" : 0,
            "source" : 0
        }
    ],
    "images" : [
        {
            "bufferView" : 4,
            "mimeType" : "image/png",
            "name" : "Image_0"
        }
    ],
    "accessors" : [
        {
            "bufferView" : 0,
            "componentType" : 5126,
            "count" : 19726,
            "max" : [
                0.01996000111103058,
                0.0237599965184927,
                0.010830000974237919
            ],
            "min" : [
                -0.01996000111103058,
                0,
                -0.010830000974237919
            ],
            "type" : "VEC3"
        },
        {
            "bufferView" : 1,
            "componentType" : 5126,
            "count" : 19726,
            "type" : "VEC3"
        },
        {
            "bufferView" : 2,
            "componentType" : 5126,
            "count" : 19726,
            "type" : "VEC2"
        },
        {
            "bufferView" : 3,
            "componentType" : 5123,
            "count" : 19800,
            "type" : "SCALAR"
        }
    ],
    "bufferViews" : [
        {
            "buffer" : 0,
            "byteLength" : 236712,
            "byteOffset" : 0
        },
        {
            "buffer" : 0,
            "byteLength" : 236712,
            "byteOffset" : 236712
        },
        {
            "buffer" : 0,
            "byteLength" : 157808,
            "byteOffset" : 473424
        },
        {
            "buffer" : 0,
            "byteLength" : 39600,
            "byteOffset" : 631232
        },
        {
            "buffer" : 0,
            "byteLength" : 95955,
            "byteOffset" : 670832
        }
    ],
    "samplers" : [
        {
            "magFilter" : 9729,
            "minFilter" : 9987
        }
    ],
    "buffers" : [
        {
            "byteLength" : 766788,
            "uri" : "data:application/octet-stream;base64,"
        }
    ]
}
