{
    "asset" : {
        "generator" : "Khronos glTF Blender I/O v1.8.19",
        "version" : "2.0"
    },
    "scene" : 0,
    "scenes" : [
        {
            "name" : "Scene",
            "nodes" : [
                0
            ]
        }
    ],
    "nodes" : [
        {
            "mesh" : 0,
            "name" : "\u62f1\u686506"
        }
    ],
    "materials" : [
        {
            "doubleSided" : true,
            "name" : "Mat3d66-7459126-9-39105.003",
            "pbrMetallicRoughness" : {
                "baseColorTexture" : {
                    "index" : 0
                },
                "metallicFactor" : 0
            }
        },
        {
            "doubleSided" : true,
            "name" : "Mat3d66-7459126-1-41794.003",
            "pbrMetallicRoughness" : {
                "baseColorFactor" : [
                    0,
                    0,
                    0,
                    1
                ],
                "metallicFactor" : 0
            }
        },
        {
            "doubleSided" : true,
            "name" : "Mat3d66-7459126-34-26494",
            "pbrMetallicRoughness" : {
                "baseColorTexture" : {
                    "index" : 1
                },
                "metallicFactor" : 0,
                "roughnessFactor" : 0.9566929340362549
            }
        }
    ],
    "meshes" : [
        {
            "name" : "Obj3d66-7459126-1290-316",
            "primitives" : [
                {
                    "attributes" : {
                        "POSITION" : 0,
                        "NORMAL" : 1,
                        "TEXCOORD_0" : 2
                    },
                    "indices" : 3,
                    "material" : 0
                },
                {
                    "attributes" : {
                        "POSITION" : 4,
                        "NORMAL" : 5,
                        "TEXCOORD_0" : 6
                    },
                    "indices" : 7,
                    "material" : 1
                },
                {
                    "attributes" : {
                        "POSITION" : 8,
                        "NORMAL" : 9,
                        "TEXCOORD_0" : 10
                    },
                    "indices" : 11,
                    "material" : 2
                }
            ]
        }
    ],
    "textures" : [
        {
            "sampler" : 0,
            "source" : 0
        },
        {
            "sampler" : 0,
            "source" : 1
        }
    ],
    "images" : [
        {
            "bufferView" : 4,
            "mimeType" : "image/jpeg",
            "name" : "Image_0"
        },
        {
            "bufferView" : 13,
            "mimeType" : "image/jpeg",
            "name" : "Image_1"
        }
    ],
    "accessors" : [
        {
            "bufferView" : 0,
            "componentType" : 5126,
            "count" : 338,
            "max" : [
                6.472237586975098,
                3.040830135345459,
                1.5841069221496582
            ],
            "min" : [
                -6.498011589050293,
                0.10716351866722107,
                -1.5841069221496582
            ],
            "type" : "VEC3"
        },
        {
            "bufferView" : 1,
            "componentType" : 5126,
            "count" : 338,
            "type" : "VEC3"
        },
        {
            "bufferView" : 2,
            "componentType" : 5126,
            "count" : 338,
            "type" : "VEC2"
        },
        {
            "bufferView" : 3,
            "componentType" : 5123,
            "count" : 414,
            "type" : "SCALAR"
        },
        {
            "bufferView" : 5,
            "componentType" : 5126,
            "count" : 696,
            "max" : [
                7.331326484680176,
                4.257040500640869,
                1.5841059684753418
            ],
            "min" : [
                -7.331326484680176,
                0.9704530239105225,
                -1.5852503776550293
            ],
            "type" : "VEC3"
        },
        {
            "bufferView" : 6,
            "componentType" : 5126,
            "count" : 696,
            "type" : "VEC3"
        },
        {
            "bufferView" : 7,
            "componentType" : 5126,
            "count" : 696,
            "type" : "VEC2"
        },
        {
            "bufferView" : 8,
            "componentType" : 5123,
            "count" : 786,
            "type" : "SCALAR"
        },
        {
            "bufferView" : 9,
            "componentType" : 5126,
            "count" : 60726,
            "max" : [
                8.218565940856934,
                4.690932273864746,
                1.6157870292663574
            ],
            "min" : [
                -8.218565940856934,
                2.9802322387695312e-08,
                -1.6157870292663574
            ],
            "type" : "VEC3"
        },
        {
            "bufferView" : 10,
            "componentType" : 5126,
            "count" : 60726,
            "type" : "VEC3"
        },
        {
            "bufferView" : 11,
            "componentType" : 5126,
            "count" : 60726,
            "type" : "VEC2"
        },
        {
            "bufferView" : 12,
            "componentType" : 5123,
            "count" : 68928,
            "type" : "SCALAR"
        }
    ],
    "bufferViews" : [
        {
            "buffer" : 0,
            "byteLength" : 4056,
            "byteOffset" : 0
        },
        {
            "buffer" : 0,
            "byteLength" : 4056,
            "byteOffset" : 4056
        },
        {
            "buffer" : 0,
            "byteLength" : 2704,
            "byteOffset" : 8112
        },
        {
            "buffer" : 0,
            "byteLength" : 828,
            "byteOffset" : 10816
        },
        {
            "buffer" : 0,
            "byteLength" : 60365,
            "byteOffset" : 11644
        },
        {
            "buffer" : 0,
            "byteLength" : 8352,
            "byteOffset" : 72012
        },
        {
            "buffer" : 0,
            "byteLength" : 8352,
            "byteOffset" : 80364
        },
        {
            "buffer" : 0,
            "byteLength" : 5568,
            "byteOffset" : 88716
        },
        {
            "buffer" : 0,
            "byteLength" : 1572,
            "byteOffset" : 94284
        },
        {
            "buffer" : 0,
            "byteLength" : 728712,
            "byteOffset" : 95856
        },
        {
            "buffer" : 0,
            "byteLength" : 728712,
            "byteOffset" : 824568
        },
        {
            "buffer" : 0,
            "byteLength" : 485808,
            "byteOffset" : 1553280
        },
        {
            "buffer" : 0,
            "byteLength" : 137856,
            "byteOffset" : 2039088
        },
        {
            "buffer" : 0,
            "byteLength" : 53765,
            "byteOffset" : 2176944
        }
    ],
    "samplers" : [
        {
            "magFilter" : 9729,
            "minFilter" : 9987
        }
    ],
    "buffers" : [
        {
            "byteLength" : 2230712,
            "uri" : "data:application/octet-stream;base64,"
        }
    ]
}
