{
    "asset" : {
        "generator" : "Khronos glTF Blender I/O v1.8.19",
        "version" : "2.0"
    },
    "scene" : 0,
    "scenes" : [
        {
            "name" : "Scene",
            "nodes" : [
                0
            ]
        }
    ],
    "nodes" : [
        {
            "mesh" : 0,
            "name" : "\u96d5\u5851_\u9a6c"
        }
    ],
    "materials" : [
        {
            "doubleSided" : true,
            "name" : "Mat3d66-1525640-1-3887",
            "pbrMetallicRoughness" : {
                "baseColorFactor" : [
                    0.01960800029337406,
                    0.01960800029337406,
                    0.01960800029337406,
                    1
                ],
                "metallicFactor" : 0.5196850299835205,
                "roughnessFactor" : 0.5
            }
        }
    ],
    "meshes" : [
        {
            "name" : "Obj3d66-1525640-1033-839",
            "primitives" : [
                {
                    "attributes" : {
                        "POSITION" : 0,
                        "NORMAL" : 1,
                        "TEXCOORD_0" : 2
                    },
                    "indices" : 3,
                    "material" : 0
                }
            ]
        }
    ],
    "accessors" : [
        {
            "bufferView" : 0,
            "componentType" : 5126,
            "count" : 20048,
            "max" : [
                2.3764092922210693,
                4.64949369430542,
                0.7170950174331665
            ],
            "min" : [
                -2.3764092922210693,
                2.9802322387695312e-08,
                -0.717095136642456
            ],
            "type" : "VEC3"
        },
        {
            "bufferView" : 1,
            "componentType" : 5126,
            "count" : 20048,
            "type" : "VEC3"
        },
        {
            "bufferView" : 2,
            "componentType" : 5126,
            "count" : 20048,
            "type" : "VEC2"
        },
        {
            "bufferView" : 3,
            "componentType" : 5123,
            "count" : 20412,
            "type" : "SCALAR"
        }
    ],
    "bufferViews" : [
        {
            "buffer" : 0,
            "byteLength" : 240576,
            "byteOffset" : 0
        },
        {
            "buffer" : 0,
            "byteLength" : 240576,
            "byteOffset" : 240576
        },
        {
            "buffer" : 0,
            "byteLength" : 160384,
            "byteOffset" : 481152
        },
        {
            "buffer" : 0,
            "byteLength" : 40824,
            "byteOffset" : 641536
        }
    ],
    "buffers" : [
        {
            "byteLength" : 682360,
            "uri" : "data:application/octet-stream;base64,"
        }
    ]
}
