{
    "asset" : {
        "generator" : "Khronos glTF Blender I/O v1.8.19",
        "version" : "2.0"
    },
    "scene" : 0,
    "scenes" : [
        {
            "name" : "Scene",
            "nodes" : [
                0
            ]
        }
    ],
    "nodes" : [
        {
            "mesh" : 0,
            "name" : "\u94f6\u674f\u681102"
        }
    ],
    "materials" : [
        {
            "doubleSided" : true,
            "name" : "AM113_022_Tilia",
            "pbrMetallicRoughness" : {
                "baseColorTexture" : {
                    "index" : 0
                },
                "metallicFactor" : 0,
                "roughnessFactor" : 0.7362204790115356
            }
        },
        {
            "alphaCutoff" : 0.5,
            "alphaMode" : "MASK",
            "doubleSided" : true,
            "name" : "AM113_022_Tilia.001",
            "pbrMetallicRoughness" : {
                "baseColorTexture" : {
                    "index" : 1
                },
                "metallicFactor" : 0,
                "roughnessFactor" : 0.8149605989456177
            }
        }
    ],
    "meshes" : [
        {
            "name" : "AM113_022_Tilia",
            "primitives" : [
                {
                    "attributes" : {
                        "POSITION" : 0,
                        "NORMAL" : 1,
                        "TEXCOORD_0" : 2
                    },
                    "indices" : 3,
                    "material" : 0
                },
                {
                    "attributes" : {
                        "POSITION" : 4,
                        "NORMAL" : 5,
                        "TEXCOORD_0" : 6
                    },
                    "indices" : 7,
                    "material" : 1
                }
            ]
        }
    ],
    "textures" : [
        {
            "sampler" : 0,
            "source" : 0
        },
        {
            "sampler" : 0,
            "source" : 1
        }
    ],
    "images" : [
        {
            "bufferView" : 4,
            "mimeType" : "image/jpeg",
            "name" : "Image_0"
        },
        {
            "bufferView" : 9,
            "mimeType" : "image/png",
            "name" : "Image_1"
        }
    ],
    "accessors" : [
        {
            "bufferView" : 0,
            "componentType" : 5126,
            "count" : 1768,
            "max" : [
                1.693490982055664,
                7.468735218048096,
                1.8924109935760498
            ],
            "min" : [
                -2.435966968536377,
                -0.0037360000424087048,
                -2.082345962524414
            ],
            "type" : "VEC3"
        },
        {
            "bufferView" : 1,
            "componentType" : 5126,
            "count" : 1768,
            "type" : "VEC3"
        },
        {
            "bufferView" : 2,
            "componentType" : 5126,
            "count" : 1768,
            "type" : "VEC2"
        },
        {
            "bufferView" : 3,
            "componentType" : 5123,
            "count" : 5424,
            "type" : "SCALAR"
        },
        {
            "bufferView" : 5,
            "componentType" : 5126,
            "count" : 10867,
            "max" : [
                3.593564033508301,
                9.41416072845459,
                3.431226968765259
            ],
            "min" : [
                -4.140277862548828,
                2.236768960952759,
                -4.093560218811035
            ],
            "type" : "VEC3"
        },
        {
            "bufferView" : 6,
            "componentType" : 5126,
            "count" : 10867,
            "type" : "VEC3"
        },
        {
            "bufferView" : 7,
            "componentType" : 5126,
            "count" : 10867,
            "type" : "VEC2"
        },
        {
            "bufferView" : 8,
            "componentType" : 5123,
            "count" : 32331,
            "type" : "SCALAR"
        }
    ],
    "bufferViews" : [
        {
            "buffer" : 0,
            "byteLength" : 21216,
            "byteOffset" : 0
        },
        {
            "buffer" : 0,
            "byteLength" : 21216,
            "byteOffset" : 21216
        },
        {
            "buffer" : 0,
            "byteLength" : 14144,
            "byteOffset" : 42432
        },
        {
            "buffer" : 0,
            "byteLength" : 10848,
            "byteOffset" : 56576
        },
        {
            "buffer" : 0,
            "byteLength" : 96266,
            "byteOffset" : 67424
        },
        {
            "buffer" : 0,
            "byteLength" : 130404,
            "byteOffset" : 163692
        },
        {
            "buffer" : 0,
            "byteLength" : 130404,
            "byteOffset" : 294096
        },
        {
            "buffer" : 0,
            "byteLength" : 86936,
            "byteOffset" : 424500
        },
        {
            "buffer" : 0,
            "byteLength" : 64662,
            "byteOffset" : 511436
        },
        {
            "buffer" : 0,
            "byteLength" : 593170,
            "byteOffset" : 576100
        }
    ],
    "samplers" : [
        {
            "magFilter" : 9729,
            "minFilter" : 9987
        }
    ],
    "buffers" : [
        {
            "byteLength" : 1169272,
            "uri" : "data:application/octet-stream;base64,"
        }
    ]
}
